<svg width="57" height="23" viewBox="0 0 57 23" fill="none" xmlns="http://www.w3.org/2000/svg">
<path d="M6.37333 22.3565H0.411037V0.424011H12.6754V6.15674H6.37333V9.70707H12.3113V15.4405H6.37333V22.3565Z" fill="#A0A1A8"/>
<path d="M32.2566 11.3796C32.2566 1.33335 23.2396 0.424011 19.5062 0.424011H13.4961V22.3357H19.5062L19.4969 16.623V6.06616C23.1946 6.06616 26.3363 7.43124 26.3363 11.3445C26.3363 15.2573 23.1946 16.6223 19.4969 16.6223L19.5062 22.3351C24.1517 22.3357 32.2566 21.4464 32.2566 11.3796Z" fill="#A0A1A8"/>
<path d="M39.2519 0.375H33.2896V22.3531H39.2519V0.375Z" fill="#A0A1A8"/>
<path d="M51.4255 16.5516C48.5614 16.5516 46.1911 14.2194 46.1911 11.3594C46.1911 8.49946 48.5614 6.16657 51.4255 6.16657C54.0368 6.16657 55.4022 7.55447 56.3015 9.3824V1.51292C56.3015 1.51292 53.6615 0.329712 51.2013 0.329712C45.7372 0.329712 39.817 5.35209 39.817 11.3594C39.817 18.714 45.4638 22.3884 51.2013 22.3884C53.6607 22.3884 56.3015 21.2066 56.3015 21.2066V13.4056C55.2252 15.2599 54.0226 16.5516 51.4255 16.5516Z" fill="#A0A1A8"/>
<path d="M51.4927 15.9098C53.9945 15.9098 56.0227 13.8831 56.0227 11.383C56.0227 8.883 53.9945 6.85632 51.4927 6.85632C48.9909 6.85632 46.9629 8.883 46.9629 11.383C46.9629 13.8831 48.9909 15.9098 51.4927 15.9098Z" fill="#A0A1A8"/>
</svg>
